<?xml version="1.0" encoding="UTF-8"?>
<svg id="Layer_2" data-name="Layer 2" xmlns="http://www.w3.org/2000/svg" viewBox="0 0 1300 142">
  <defs>
    <style>
      .cls-1 {
        fill: #000;
        stroke-width: 0px;
      }
    </style>
  </defs>
  <g id="Layer_1-2" data-name="Layer 1">
    <g>
      <polygon class="cls-1" points="100.71 31.67 64.61 31.67 31.72 69.96 31.72 31.67 0 31.67 0 140.31 31.72 140.31 31.72 108.93 42.85 96.45 69.67 140.31 103.41 140.31 62.42 76.21 100.71 31.67"/>
      <path class="cls-1" d="M145.92,31.67l-41.67,108.64h33.07l8.94-23.11h32.73l9.11,23.11h33.07l-41.67-108.64h-33.57ZM150.48,94.43l12.15-31.88,12.15,31.88h-24.29Z"/>
      <path class="cls-1" d="M298.51,82.28c-4.67-3.37-11.45-6.24-20.33-8.6-7.65-2.02-12.96-3.68-15.94-4.98-2.98-1.29-4.47-3.35-4.47-6.16,0-3.26,1.74-5.28,5.23-6.07,3.48-.79,7.7-1.18,12.65-1.18,4.27,0,8.83.45,13.66,1.35,4.83.9,9.9,2.42,15.18,4.55v-26.32c-3.94-1.24-9.08-2.36-15.44-3.37-6.36-1.01-12.51-1.52-18.47-1.52-14.96,0-26.23,2.78-33.82,8.35-7.59,5.57-11.39,13.69-11.39,24.38,0,5.85.93,10.8,2.78,14.85,1.86,4.05,4.92,7.48,9.19,10.29,4.27,2.81,10.06,5.4,17.38,7.76,5.51,1.69,9.98,3.09,13.41,4.22,3.43,1.13,5.96,2.36,7.59,3.71,1.63,1.35,2.45,3.21,2.45,5.57,0,3.37-1.43,5.54-4.3,6.5-2.87.96-7.11,1.43-12.74,1.43s-11.19-.73-17.38-2.19c-6.19-1.46-11.81-3.37-16.87-5.74v26.15c4.61,2.14,10.18,3.8,16.7,4.98,6.52,1.18,13.44,1.77,20.75,1.77,15.52,0,27.1-3.01,34.75-9.03,7.65-6.01,11.47-13.97,11.47-23.87,0-5.62-.84-10.65-2.53-15.1-1.69-4.44-4.87-8.35-9.53-11.72Z"/>
      <polygon class="cls-1" points="391.55 72.16 354.1 72.16 354.1 31.67 322.38 31.67 322.38 140.31 354.1 140.31 354.1 99.82 391.55 99.82 391.55 140.31 423.27 140.31 423.27 31.67 391.55 31.67 391.55 72.16"/>
      <path class="cls-1" d="M476.75,31.67l-41.67,108.64h33.06l8.94-23.11h32.73l9.11,23.11h33.07l-41.67-108.64h-33.57ZM481.3,94.43l12.15-31.88,12.15,31.88h-24.29Z"/>
      <polygon class="cls-1" points="631.78 89.2 590.79 31.67 563.79 31.67 563.79 140.31 595.51 140.31 595.51 82.95 636.34 140.31 663.5 140.31 663.5 31.67 631.78 31.67 631.78 89.2"/>
      <path class="cls-1" d="M751.56,31.67l-41.67,108.64h33.07l8.94-23.11h32.73l9.11,23.11h33.07l-41.67-108.64h-33.57ZM756.11,94.43l12.15-31.88,12.15,31.88h-24.29Z"/>
      <path class="cls-1" d="M920.76,84.98c3.37-2.25,6.1-5.28,8.18-9.11,2.08-3.82,3.12-8.55,3.12-14.17,0-9.67-2.87-17.09-8.6-22.27-5.74-5.17-14.12-7.76-25.14-7.76h-59.72v108.64h61.07c11.58,0,20.52-2.81,26.82-8.44,6.3-5.62,9.45-13.55,9.45-23.79,0-6.75-1.38-11.84-4.13-15.27-2.76-3.43-6.44-6.04-11.05-7.84ZM869.14,53.94h19.74c4.61,0,7.84.9,9.7,2.7,1.86,1.8,2.78,4.44,2.78,7.93,0,6.97-3.88,10.46-11.64,10.46h-20.58v-21.09ZM900.52,115.51c-2.02,1.8-5.17,2.7-9.45,2.7h-21.93v-22.27h21.26c4.72,0,8.1.9,10.12,2.7,2.02,1.8,3.04,4.44,3.04,7.93,0,4.16-1.01,7.14-3.04,8.94Z"/>
      <polygon class="cls-1" points="947.76 140.31 1030.08 140.31 1030.08 116.02 979.47 116.02 979.47 98.31 1023.84 98.31 1023.84 73.68 979.47 73.68 979.47 55.96 1030.08 55.96 1030.08 31.67 947.76 31.67 947.76 140.31"/>
      <path class="cls-1" d="M1117.3,37.15c-7.87-3.65-17.38-5.48-28.51-5.48h-48.59v108.64h48.59c16.98,0,30.03-4.27,39.14-12.82,9.11-8.55,13.66-22.16,13.66-40.83,0-13.27-2.08-23.93-6.24-31.97-4.16-8.04-10.18-13.89-18.05-17.54ZM1106.33,105.14c-1.91,4.22-4.67,7.08-8.27,8.6-3.6,1.52-8.04,2.28-13.33,2.28h-12.82v-60.06h12.82c5.62,0,10.23.87,13.83,2.61,3.6,1.74,6.27,4.84,8.01,9.28,1.74,4.44,2.61,10.71,2.61,18.81s-.96,14.25-2.87,18.47Z"/>
      <rect class="cls-1" x="1153.4" y="31.67" width="31.72" height="108.64"/>
      <polygon class="cls-1" points="1268.28 31.67 1268.28 89.2 1227.29 31.67 1200.3 31.67 1200.3 140.31 1232.01 140.31 1232.01 82.95 1272.84 140.31 1300 140.31 1300 31.67 1268.28 31.67"/>
      <rect class="cls-1" x="133.44" width="22.1" height="20.24"/>
      <rect class="cls-1" x="169.88" width="22.1" height="20.24"/>
    </g>
  </g>
</svg>